<svg id="Capa_1" enable-background="new 0 0 511.993 511.993" height="512" viewBox="0 0 511.993 511.993" width="512" xmlns="http://www.w3.org/2000/svg"><g><g><path d="m181.962 475.472-6.965-14.472h-46l-10.493 14.472v26.138c0 2.504 2.972 3.819 4.825 2.134l24.964-22.695c1.1-1 2.78-1 3.88 0l24.964 22.695c1.853 1.685 4.825.37 4.825-2.134z" fill="#ecbe6b"/><path d="m118.504 391.79h63.458v83.682h-63.458z" fill="#eab14d"/><path d="m395.097 7.5h-8.338l-24.262 12.5-19.966-12.5h-246.085c-10.219 0-18.502 8.284-18.502 18.502v405.456c0 10.218 8.284 18.502 18.502 18.502h246.084l22.114-9.96 22.114 9.96h8.338c21.512 0 38.952-17.439 38.952-38.952v-364.556c.001-21.513-17.438-38.952-38.951-38.952z" fill="#e28086"/><path d="m357.042 135.236h-161.53c-4.248 0-7.692-3.444-7.692-7.692v-50.959c0-4.248 3.444-7.692 7.692-7.692h161.53c4.248 0 7.692 3.444 7.692 7.692v50.959c-.001 4.248-3.444 7.692-7.692 7.692z" fill="#bed8fb"/><path d="m118.504 7.5h-22.058c-10.218 0-18.502 8.284-18.502 18.502v405.456c0 10.218 8.284 18.502 18.502 18.502h22.057v-442.46z" fill="#365e7d"/><path d="m395.097 7.5h-28.347c21.513 0 38.952 17.439 38.952 38.952v364.556c0 21.513-17.439 38.952-38.952 38.952h28.347c21.512 0 38.952-17.439 38.952-38.952v-364.556c0-21.513-17.439-38.952-38.952-38.952z" fill="#dd636e"/><path d="m342.531 7.5h44.228v442.46h-44.228z" fill="#e2e2e2"/><path d="m342.531 449.96 21.551-9.706v-421.071l-1.585.817-19.966-12.5h-22.677v62.366l5.877 32.198-5.877 28.064v319.832z" fill="#dd636e"/><path d="m364.082 73.493c-1.191-2.708-3.893-4.6-7.04-4.6h-37.188v66.343h37.188c3.147 0 5.849-1.893 7.04-4.6z" fill="#9dc6fb"/><path d="m342.531 7.5h44.228v442.46h-44.228z" fill="#ffd064"/></g><path d="m395.097 0c-14.397 0-283.629 0-298.65 0-14.338 0-26.003 11.665-26.003 26.002v72.868c0 4.142 3.357 7.5 7.5 7.5s7.5-3.358 7.5-7.5v-72.868c0-6.066 4.936-11.002 11.003-11.002h14.557v427.46h-14.557c-6.067 0-11.003-4.936-11.003-11.002v-297.588c0-4.142-3.357-7.5-7.5-7.5s-7.5 3.358-7.5 7.5v297.588c0 14.338 11.665 26.002 26.003 26.002h14.557v44.149c0 4.107 2.427 7.834 6.183 9.497 3.757 1.661 8.146.951 11.188-1.813l21.859-19.872 21.86 19.873c3.045 2.768 7.436 3.471 11.186 1.812 3.756-1.662 6.183-5.389 6.183-9.497v-44.15h80.988c4.143 0 7.5-3.358 7.5-7.5s-3.357-7.5-7.5-7.5c-6.807 0-137.566 0-144.446 0 0-6.023 0-421.13 0-427.46h209.027v46.393h-139.52c-8.377 0-15.192 6.815-15.192 15.192v50.959c0 8.376 6.815 15.191 15.192 15.191h139.52v299.726h-29.582c-4.143 0-7.5 3.358-7.5 7.5s3.357 7.5 7.5 7.5h89.647c25.614 0 46.452-20.838 46.452-46.452v-364.556c0-25.614-20.837-46.452-46.452-46.452zm-220.635 457.46v33.716l-17.244-15.677c-3.983-3.619-9.988-3.617-13.97.001l-17.244 15.676v-33.716zm21.049-329.725c-.106 0-.192-.086-.192-.191v-50.959c0-.106.086-.192.192-.192h139.52v51.342zm154.52-112.735h29.229v427.46h-29.229c0-10.594 0-413.943 0-427.46zm76.518 396.008c0 17.343-14.109 31.452-31.452 31.452h-.838v-427.46h.838c17.343 0 31.452 14.109 31.452 31.452z"/></g></svg>