<svg height="512pt" viewBox="-27 0 512 512" width="512pt" xmlns="http://www.w3.org/2000/svg"><path d="m390.347656 47.730469v108.671875c-.191406-.019532-.390625-.019532-.589844-.019532-15.023437 0-27.195312 12.175782-27.195312 27.1875v135.886719s0 69 9.746094 124.101563c-5.730469 3.515625-12.472656 5.542968-19.695313 5.542968h-322.121093v-439.101562h322.121093c20.832031 0 37.734375 16.898438 37.734375 37.730469zm0 0" fill="#579fff"/><path d="m76.136719 449.101562v52.273438l26.457031-17.734375 26.152344 17.734375v-52.273438zm0 0" fill="#f46370"/><path d="m111.082031 81.097656h203.898438v116.542969h-203.898438zm0 0" fill="#e8e7e9"/><path d="m362.5625 185.367188h54.378906v134.089843h-54.378906zm0 0" fill="#adaaaf"/><path d="m399.585938 319.457031h-37.023438s0 110.257813 19.667969 163.308594h15.042969c19.667968-53.050781 19.667968-163.308594 19.667968-163.308594zm0 0" fill="#adaaaf"/><path d="m389.753906 156.382812c-15.019531 0-27.191406 12.171876-27.191406 27.191407v1.792969h54.378906v-1.792969c0-15.019531-12.171875-27.191407-27.1875-27.191407zm0 0" fill="#adaaaf"/><g fill="#231f20"><path d="m314.980469 71.097656h-203.898438c-5.523437 0-10 4.476563-10 10v116.542969c0 5.523437 4.476563 10 10 10h17.351563c5.523437 0 10-4.476563 10-10s-4.476563-10-10-10h-7.351563v-96.542969h183.898438v96.542969h-94.230469c-5.523438 0-10 4.476563-10 10 0 5.519531 4.476562 10 10 10h104.230469c5.523437 0 10-4.480469 10-10v-116.542969c0-5.523437-4.476563-10-10-10zm0 0"/><path d="m151.039062 129.914062h123.984376c5.523437 0 10-4.476562 10-10 0-5.523437-4.476563-10-10-10h-123.984376c-5.523437 0-10 4.476563-10 10 0 5.523438 4.476563 10 10 10zm0 0"/><path d="m285.023438 159.578125c0-5.523437-4.476563-10-10-10h-123.984376c-5.523437 0-10 4.476563-10 10s4.476563 10 10 10h123.984376c5.523437 0 10-4.476563 10-10zm0 0"/><path d="m426.941406 191.949219v-8.375c0-16.828125-11.234375-31.070313-26.59375-35.644531v-100.199219c0-26.316407-21.414062-47.730469-47.734375-47.730469h-322.121093c-5.523438 0-10 4.476562-10 10v67.652344h-10.492188c-5.523438 0-10 4.476562-10 10 0 5.523437 4.476562 10 10 10h10.492188v48.730468h-10.492188c-5.523438 0-10 4.476563-10 10 0 5.523438 4.476562 10 10 10h10.492188v48.730469h-10.492188c-5.523438 0-10 4.480469-10 10 0 5.523438 4.476562 10 10 10h10.492188v48.734375h-10.492188c-5.523438 0-10 4.476563-10 10 0 5.523438 4.476562 10 10 10h10.492188v48.730469h-10.492188c-5.523438 0-10 4.476563-10 10s4.476562 10 10 10h10.492188v76.523437c0 5.523438 4.476562 10 10 10h35.644531v42.273438c0 3.691406 2.035156 7.082031 5.292969 8.820312 1.476562.789063 3.09375 1.179688 4.707031 1.179688 1.949219 0 3.890625-.570312 5.566406-1.695312l20.859375-13.980469 20.570312 13.953125c3.0625 2.078125 7.027344 2.292968 10.296876.558594 3.269531-1.734376 5.316406-5.132813 5.316406-8.835938v-42.273438h213.867187c4.148438 0 8.25-.542968 12.210938-1.589843 2.242187 10.496093 4.894531 20.273437 8.03125 28.730469 1.15625 3.125 3.765625 5.40625 6.894531 6.207031v9.550781c0 5.523438 4.476562 10 10 10s10-4.476562 10-10v-9.550781c3.128906-.800781 5.738281-3.082031 6.898438-6.207031 20.0625-54.113282 20.292968-162.210938 20.292968-166.785157v-106.269531c6.894532 3.617188 11.613282 10.839844 11.613282 19.152344v87.359375c0 5.523437 4.476562 10 10 10 5.519531 0 10-4.476563 10-10v-87.359375c0-19.5-13.480469-35.902344-31.613282-40.390625zm-54.378906 3.417969h34.378906v114.089843h-34.378906zm32.292969-20h-30.199219c.234375-.433594.492188-.851563.765625-1.261719.046875-.074219.101563-.148438.152344-.222657.59375-.863281 1.257812-1.671874 1.996093-2.414062.003907-.003906.007813-.007812.015626-.011719 2.703124-2.707031 6.308593-4.523437 10.34375-4.964843.023437-.003907.046874-.007813.074218-.007813.5625-.058594 1.136719-.09375 1.71875-.097656h.003906.089844c6.480469.023437 12.128906 3.648437 15.039063 8.980469zm-286.109375 307.144531-10.539063-7.148438c-3.371093-2.285156-7.796875-2.296875-11.179687-.027343l-10.890625 7.300781v-23.535157h32.609375zm233.867187-43.410157h-223.828125c-.011718 0-.023437 0-.039062 0h-52.609375c-.011719 0-.027344 0-.039063 0h-35.605468v-66.523437h13.300781c5.523437 0 10-4.476563 10-10 0-5.519531-4.476563-10-10-10h-13.300781v-48.730469h13.300781c5.523437 0 10-4.476562 10-10 0-5.523437-4.476563-10-10-10h-13.300781v-48.730468h13.300781c5.523437 0 10-4.476563 10-10 0-5.523438-4.476563-10-10-10h-13.300781v-48.734376h13.300781c5.523437 0 10-4.476562 10-10 0-5.523437-4.476563-10-10-10h-13.300781v-48.730468h13.300781c5.523437 0 10-4.476563 10-10 0-5.523438-4.476563-10-10-10h-13.300781v-57.652344h312.121093c15.292969 0 27.734375 12.441406 27.734375 27.730469v99.859375c-.523437.136718-1.035156.28125-1.546875.441406-11.777343 3.632812-21.242187 13.214844-24.726562 25.035156-1 3.402344-1.511719 6.960938-1.511719 10.503906v135.886719c0 .40625 0 2.144531.035156 4.96875v.105469c0 .191406.003906.386719.007813.585938.203125 16.875 1.417969 67.621093 8.578125 112.632812-2.75.890625-5.640625 1.351562-8.570313 1.351562zm37.507813 33.664063h-.734375c-2.851563-9.078125-5.21875-19.527344-7.183594-30.609375-.015625-.113281-.027344-.226562-.046875-.339844-2.75-15.546875-4.710938-32.316406-6.113281-48.308594-2.316407-26.546874-3.09375-50.960937-3.351563-64.050781h34.121094c-.527344 26.667969-3.195312 100.324219-16.691406 143.308594zm0 0"/><path d="m180.316406 193.820312c-1.613281-3.9375-5.710937-6.445312-9.949218-6.152343-4.148438.289062-7.75 3.238281-8.894532 7.230469-1.144531 3.996093.382813 8.449218 3.785156 10.867187 3.367188 2.394531 7.925782 2.460937 11.371094.183594 3.921875-2.59375 5.496094-7.789063 3.6875-12.128907zm0 0"/></g></svg>