<?xml version="1.0" encoding="iso-8859-1"?>
<!-- Generator: Adobe Illustrator 19.0.0, SVG Export Plug-In . SVG Version: 6.00 Build 0)  -->
<svg version="1.1" id="Layer_1" xmlns="http://www.w3.org/2000/svg" xmlns:xlink="http://www.w3.org/1999/xlink" x="0px" y="0px"
	 viewBox="0 0 511.999 511.999" style="enable-background:new 0 0 511.999 511.999;" xml:space="preserve">
<path style="fill:#CE544C;" d="M159.514,504.163c-1.363,0-2.706-0.504-3.731-1.459l-18.984-14.62l-18.985,14.62
	c-1.024,0.954-2.369,1.459-3.73,1.459c-0.719,0-1.443-0.139-2.13-0.426c-1.988-0.835-3.278-2.749-3.278-4.868V418.4
	c0-2.924,2.421-5.293,5.408-5.293h45.429c2.986,0,5.408,2.37,5.408,5.293v80.469c0,2.119-1.289,4.033-3.278,4.868
	C160.957,504.024,160.234,504.163,159.514,504.163z"/>
<path style="fill:#48587C;" d="M94.69,460.362c-2.953,0-5.347-2.391-5.347-5.342V15.943c0-2.95,2.394-5.342,5.347-5.342h268.079
	c33.024,0,59.888,26.838,59.888,59.827v330.109c0,32.988-26.865,59.826-59.888,59.826H94.69V460.362z"/>
<path style="opacity:0.2;fill:#FFFFFF;enable-background:new    ;" d="M362.769,10.602h-32.91c33.023,0,59.888,26.837,59.888,59.826
	v330.109c0,32.988-26.865,59.826-59.888,59.826h32.91c33.024,0,59.888-26.837,59.888-59.826V70.427
	C422.657,37.439,395.792,10.602,362.769,10.602z"/>
<rect x="89.339" y="219.335" style="fill:#DCE0E0;" width="333.312" height="129.515"/>
<path style="opacity:0.1;enable-background:new    ;" d="M122.253,455.021V15.943c0-2.95,2.394-5.342,5.347-5.342H94.69
	c-2.953,0-5.347,2.392-5.347,5.342v439.078c0,2.951,2.394,5.342,5.347,5.342h32.91C124.647,460.362,122.253,457.971,122.253,455.021
	z"/>
<rect x="237.641" y="278.423" style="fill:#FFFFFF;" width="146.526" height="30.241"/>
<path style="fill:#46D8BA;" d="M358.889,456.183c0,4.038-2.285,7.308-5.103,7.308h-20.421c-2.819,0-5.104-3.271-5.104-7.308V15.144
	c0-4.033,2.284-7.307,5.104-7.307h20.422c2.818,0,5.103,3.274,5.103,7.307L358.889,456.183L358.889,456.183z"/>
<path d="M362.769,2.764h-1.457C359.203,1.023,356.617,0,353.786,0h-20.422c-2.832,0-5.419,1.023-7.527,2.764H94.69
	c-7.269,0-13.183,5.912-13.183,13.178V455.02c0,7.266,5.914,13.178,13.183,13.178h6.15v30.67c0,5.287,3.172,10.034,8.085,12.096
	c1.639,0.688,3.375,1.035,5.159,1.035c3.235,0,6.321-1.155,8.74-3.261l13.975-10.762l13.976,10.763c2.42,2.107,5.506,3.26,8.74,3.26
	c1.783,0,3.518-0.348,5.164-1.038c4.909-2.062,8.08-6.809,8.08-12.094v-30.67h152.66c2.181,1.962,4.923,3.128,7.946,3.128h20.422
	c3.024,0,5.766-1.166,7.944-3.128h1.038c37.344,0,67.725-30.353,67.725-67.662V70.427C430.494,33.118,400.112,2.764,362.769,2.764z
	 M414.82,70.427v141.066h-48.095V18.603C393.584,20.632,414.82,43.092,414.82,70.427z M366.726,286.256h9.603v14.568h-9.603V286.256
	z M351.052,15.673v439.98h-14.956V15.673H351.052z M320.423,300.824h-74.951v-14.568h74.951V300.824z M320.423,270.583h-82.787
	c-4.328,0-7.837,3.508-7.837,7.837v30.241c0,4.329,3.509,7.837,7.837,7.837h82.787v24.513H97.18V227.167h223.243V270.583z
	 M366.726,316.497h17.439c4.328,0,7.837-3.508,7.837-7.837v-30.241c0-4.329-3.509-7.837-7.837-7.837h-17.439v-43.416h48.095v113.844
	h-48.095L366.726,316.497L366.726,316.497z M320.423,18.438v193.056H97.18V18.438H320.423z M97.18,356.684h223.243v95.841H97.18
	V356.684z M157.085,493.817l-15.504-11.941c-1.41-1.085-3.095-1.628-4.781-1.628c-1.686,0-3.373,0.543-4.781,1.628l-15.504,11.94
	v-25.617h40.571V493.817z M366.726,452.36v-95.676h48.095v43.852C414.82,427.871,393.584,450.331,366.726,452.36z"/>
<g>
</g>
<g>
</g>
<g>
</g>
<g>
</g>
<g>
</g>
<g>
</g>
<g>
</g>
<g>
</g>
<g>
</g>
<g>
</g>
<g>
</g>
<g>
</g>
<g>
</g>
<g>
</g>
<g>
</g>
</svg>
